<svg xmlns="http://www.w3.org/2000/svg" width="38" height="38" viewBox="0 0 38 38"><defs><style>.a{fill:#fff;}</style></defs><path class="a" d="M35.582,9.327a20.354,20.354,0,0,0-2.936-3.8,22.48,22.48,0,0,0-3.973-3.109L31.091,0s3.455,0,5.182,1.727S38,6.909,38,6.909ZM15.545,29.364H8.636V22.455l.864-.864a12.461,12.461,0,0,1,3.973,2.936A15.75,15.75,0,0,1,16.409,28.5ZM33.682,11.227l-15.2,15.2a20.354,20.354,0,0,0-2.936-3.8,22.48,22.48,0,0,0-3.973-3.109L26.945,4.145a12.461,12.461,0,0,1,3.973,2.936A19.236,19.236,0,0,1,33.682,11.227ZM5.182,5.182V32.818H32.818V20.727L38,15.545v19A3.465,3.465,0,0,1,34.545,38H3.455A3.465,3.465,0,0,1,0,34.545V3.455A3.465,3.465,0,0,1,3.455,0h19L17.273,5.182Z"/></svg>